# xmcd
#
# Track frame offsets:
#	150
#	13442
#	28235
#	43891
#	59864
#	74721
#	92894
#	106587
#	120457
#	140525
#	153121
#	166569
#	181913
#	195666
#	211693
#	225547
#
# Disc length: 3240 seconds
#
# Revision: 0
# Processed by: cddbd v1.4PL0 Copyright (c) Steve Scherf et al.
# Submitted via: EasyCDDAExtractor 5.0.5.1
#
DISCID=dd0ca610
DTITLE=Rick Tippe - The Best of Rick Tippe
DYEAR=2000
DGENRE=Country
TTITLE0=More where that came from
TTITLE1=Mad Love
TTITLE2=The Real Thing
TTITLE3=Two Broken Hearted Fools
TTITLE4=Get Hot or Go Home
TTITLE5=When you say jump
TTITLE6=She could have it all
TTITLE7=The Craziest Thing
TTITLE8=Shver 'n' Shake
TTITLE9=Never Givin' Up
TTITLE10=The Wheel of Love (Is a lifetime ride)
TTITLE11=Triple Threat
TTITLE12=You're all I need
TTITLE13=Keeping the Faith
TTITLE14=Should'a seen her comin'
TTITLE15=The future is lookin' brighter
EXTD=
EXTT0=
EXTT1=
EXTT2=
EXTT3=
EXTT4=
EXTT5=
EXTT6=
EXTT7=
EXTT8=
EXTT9=
EXTT10=
EXTT11=
EXTT12=
EXTT13=
EXTT14=
EXTT15=
PLAYORDER=
